<svg xmlns="http://www.w3.org/2000/svg" viewBox="0 0 120 120" width="512" height="512">
  <defs>
    <linearGradient id="bg" x1="0%" y1="0%" x2="100%" y2="100%">
      <stop offset="0%" stop-color="#1A7A8A"/>
      <stop offset="100%" stop-color="#0D5F6E"/>
    </linearGradient>
    <filter id="shadow" x="-15%" y="-15%" width="140%" height="155%">
      <feDropShadow dx="0" dy="3.5" stdDeviation="3.5" flood-color="#093D47" flood-opacity="0.45"/>
    </filter>
  </defs>
  <g filter="url(#shadow)">
    <rect x="8" y="8" width="88" height="72" rx="15" ry="15" fill="url(#bg)"/>
    <path d="M 17 80 L 9 97 L 35 80 Z" fill="url(#bg)"/>
  </g>
  <rect x="19" y="11" width="6" height="6" rx="3" fill="white"/>
  <rect x="33" y="11" width="6" height="6" rx="3" fill="white"/>
  <line x1="22" y1="17" x2="22" y2="24" stroke="white" stroke-width="4" stroke-linecap="round"/>
  <line x1="36" y1="17" x2="36" y2="24" stroke="white" stroke-width="4" stroke-linecap="round"/>
  <path d="M 22 24 C 22 33, 36 33, 36 24" stroke="white" stroke-width="4" stroke-linecap="round" fill="none"/>
  <line x1="29" y1="33" x2="29" y2="54" stroke="white" stroke-width="4" stroke-linecap="round"/>
  <path d="M 29 54 C 29 63, 40 66, 50 63" stroke="white" stroke-width="4" stroke-linecap="round" fill="none"/>
  <circle cx="50" cy="63" r="5.8" fill="white"/>
  <circle cx="50" cy="63" r="3.8" fill="#0D5F6E"/>
  <circle cx="50" cy="63" r="2.0" fill="white"/>
  <path d="M 72 63 C 63 57, 54 49, 54 42 C 54 36, 59 32, 65 34 C 68 35, 70 38, 72 41 C 74 38, 77 35, 80 34 C 86 32, 91 36, 91 42 C 91 49, 82 57, 72 63 Z"
    fill="white" fill-opacity="0.18" stroke="white" stroke-width="3.2" stroke-linejoin="round"/>
  <polyline points="58,51 63,51 65,47 67.5,40 70,55 72,51 78,51 83,51"
    stroke="white" stroke-width="2.8" stroke-linecap="round" stroke-linejoin="round" fill="none"/>
  <rect x="83.6" y="15.5" width="3" height="11" rx="1.5" fill="white" opacity="0.85"/>
  <rect x="79.1" y="19.5" width="11.8" height="3" rx="1.5" fill="white" opacity="0.85"/>
  <circle cx="21" cy="70" r="3.2" fill="white" opacity="0.85"/>
  <circle cx="30" cy="70" r="3.2" fill="white" opacity="0.55"/>
  <circle cx="39" cy="70" r="3.2" fill="white" opacity="0.28"/>
</svg>
