<?xml version="1.0" encoding="UTF-8"?>
<svg version="1.1" xmlns="http://www.w3.org/2000/svg" width="668" height="508">
<path d="M0 0 C220.44 0 440.88 0 668 0 C668 167.64 668 335.28 668 508 C447.56 508 227.12 508 0 508 C0 340.36 0 172.72 0 0 Z " fill="#346F7E" transform="translate(0,0)"/>
<path d="M0 0 C1.03447266 0.78890625 1.03447266 0.78890625 2.08984375 1.59375 C2.70730469 2.0578125 3.32476562 2.521875 3.9609375 3 C8.81464138 6.89161113 12.43232059 11.59105875 16.08984375 16.59375 C19.72351364 13.55333234 23.19960968 10.52721627 26.46484375 7.09375 C36.02122042 -2.54776142 47.8404397 -7.48959069 61.33984375 -7.65625 C67.44686611 -7.65921134 72.52636556 -6.96391974 78.08984375 -4.40625 C79.15138672 -3.95378906 79.15138672 -3.95378906 80.234375 -3.4921875 C84.7095376 -1.44971997 87.83554912 0.82561938 91.08984375 4.59375 C91.83041016 5.40585938 91.83041016 5.40585938 92.5859375 6.234375 C100.37602888 15.48146601 102.19375853 27.25842507 101.66796875 39.0234375 C100.97043206 46.57155247 97.73511022 53.05382052 94.08984375 59.59375 C93.538125 60.59019531 92.98640625 61.58664062 92.41796875 62.61328125 C88.11849406 69.76883555 82.85490274 76.55466627 77.08984375 82.59375 C76.42984375 82.59375 75.76984375 82.59375 75.08984375 82.59375 C74.868125 83.14933594 74.64640625 83.70492187 74.41796875 84.27734375 C70.00126283 91.98059848 60.56151956 98.15446485 53.65234375 103.65625 C53.07387695 104.1210376 52.49541016 104.5858252 51.89941406 105.06469727 C48.76711997 107.5140202 45.87269833 109.34222615 42.08984375 110.59375 C42.08984375 111.25375 42.08984375 111.91375 42.08984375 112.59375 C40.50097656 113.78295898 40.50097656 113.78295898 38.29296875 115.08984375 C37.49890625 115.56615234 36.70484375 116.04246094 35.88671875 116.53320312 C35.04625 117.02755859 34.20578125 117.52191406 33.33984375 118.03125 C31.69813638 119.00729633 30.05747585 119.98510604 28.41796875 120.96484375 C27.3182373 121.6134436 27.3182373 121.6134436 26.19628906 122.27514648 C24.04405523 123.56457806 24.04405523 123.56457806 22.05883789 125.22924805 C19.48504303 127.01287352 17.22983125 127.09469197 14.14599609 126.96777344 C10.64406009 126.33075539 8.11696935 124.38107326 5.40234375 122.21875 C4.80421875 121.76612793 4.20609375 121.31350586 3.58984375 120.84716797 C2.34990744 119.90514268 1.11632127 118.95470175 -0.11083984 117.99609375 C-1.79530935 116.6832589 -3.49748195 115.39965005 -5.2109375 114.125 C-29.56919758 95.89800794 -57.96017166 72.80241189 -64.55859375 41.51953125 C-66.16931275 28.11476975 -64.36394556 17.13292009 -56.16015625 6.15625 C-41.98428753 -10.19643751 -17.49907268 -12.54766547 0 0 Z " fill="#FAFBFB" transform="translate(388.91015625,211.40625)"/>
<path d="M0 0 C3.68601614 1.78869546 6.26805594 3.87158624 8.5 7.3125 C9.43481033 12.33710551 8.87797761 16.68303358 6 21 C5.77961789 23.80811254 5.67197207 26.51447745 5.6640625 29.32421875 C5.6574057 30.14445023 5.6507489 30.9646817 5.64389038 31.80976868 C5.63376459 33.5472286 5.62907334 35.2847274 5.62939453 37.0222168 C5.62504425 39.66066122 5.5887899 42.297401 5.55078125 44.93554688 C5.54490819 46.62759848 5.54094207 48.31965799 5.5390625 50.01171875 C5.52469147 50.79222092 5.51032043 51.57272308 5.49551392 52.37687683 C5.54170513 58.01073132 6.87213056 62.28426838 10 67 C14.88894074 71.65045583 18.69061826 72.18805316 25.3125 72.3125 C26.60800781 72.34988281 27.90351563 72.38726562 29.23828125 72.42578125 C34.66787404 71.81121675 37.65687161 69.49236488 41.25 65.5 C44.80435988 60.42234303 45.30784086 56.61875203 45.30078125 50.4375 C45.30720894 49.19504517 45.30720894 49.19504517 45.31376648 47.92749023 C45.31950007 46.1792085 45.3200172 44.43090292 45.31567383 42.68261719 C45.31251106 40.00935208 45.33599391 37.33719108 45.36132812 34.6640625 C45.36360096 32.96354306 45.36430469 31.26302065 45.36328125 29.5625 C45.372491 28.76448975 45.38170074 27.96647949 45.39118958 27.14428711 C45.35462483 22.75580853 45.03562166 20.23104164 42 17 C41.14403324 13.52372683 41.17337318 10.48249878 42 7 C44.56641607 3.25316517 47.66973818 0.6783749 52.06640625 -0.6015625 C56.79637918 -0.95330217 59.97742826 0.7025497 63.58984375 3.6484375 C66.52353202 6.46022736 66.92724064 8.34516575 67.375 12.375 C67 16 67 16 65.00146484 18.64208984 C62.36682996 23.06228601 62.49730542 26.3141016 62.6015625 31.3515625 C62.59682314 33.19140752 62.59159917 35.03125134 62.5859375 36.87109375 C62.60060205 39.74094708 62.62481907 42.61030664 62.66015625 45.47998047 C62.79289148 59.21096553 62.13753621 69.00505562 52.875 79.875 C47.5238618 84.74728914 40.28810508 89 33 89 C33.0845428 100.70959883 33.1794801 112.41906351 33.28752708 124.12847042 C33.33737955 129.56617134 33.38371036 135.00385388 33.421875 140.44165039 C33.45886762 145.69371235 33.50526502 150.94561619 33.55806351 156.19754219 C33.57653337 158.19686662 33.59166839 160.19622486 33.60334396 162.19560051 C33.62033374 165.00548213 33.64939847 167.81500744 33.68115234 170.62475586 C33.68331253 171.44331558 33.68547272 172.26187531 33.68769836 173.10523987 C33.82981586 183.0103873 35.74933169 191.18724971 42.49609375 198.65625 C55.27932837 210.67310365 72.59559008 210.41259318 89 211 C89.09023438 209.94167969 89.18046875 208.88335937 89.2734375 207.79296875 C90.54348387 201.16278045 95.72651221 196.32110601 101.125 192.4375 C106.66557263 189.73046223 113.06120314 190.05990661 119 191 C126.10887934 193.76751148 131.48394082 198.34811277 135.02734375 205.125 C137.20349745 211.55732579 137.521029 218.39919665 134.8515625 224.71875 C130.50437032 231.61905505 124.8518476 236.51358159 117 239 C109.35560604 240.17308575 103.35328939 238.32450791 97 234 C95.93265625 232.69289063 95.93265625 232.69289063 94.84375 231.359375 C90.67404405 227.89989369 87.06769127 228.3864568 81.8125 228.4375 C62.92391253 228.05236866 43.78402433 224.34179754 29.8125 210.625 C25.39812571 205.84607529 22.34284494 201.05502391 20 195 C19.5875 193.948125 19.175 192.89625 18.75 191.8125 C17.05154615 185.44329804 16.8586334 179.20750358 16.88647461 172.66821289 C16.88632858 171.76010864 16.88618256 170.85200439 16.8860321 169.91638184 C16.88672499 166.9351151 16.89448801 163.95391198 16.90234375 160.97265625 C16.90421015 158.89757827 16.905633 156.82249985 16.90663147 154.74742126 C16.91043917 149.30096203 16.92025447 143.8545297 16.93133545 138.40808105 C16.9415872 132.84432336 16.94613714 127.2805613 16.95117188 121.71679688 C16.96187837 110.81118613 16.97893372 99.90559531 17 89 C15.34085571 88.77848267 15.34085571 88.77848267 13.64819336 88.55249023 C4.88505907 87.22538236 -0.13090816 82.27821186 -5.46875 75.5 C-7.04322339 72.92943121 -7.61831604 70.96865305 -8 68 C-8.66 68 -9.32 68 -10 68 C-12.12585159 62.76766377 -12.29462213 58.1715763 -12.30859375 52.62109375 C-12.33374039 50.7949185 -12.3591386 48.9687467 -12.38476562 47.14257812 C-12.4135479 44.28329262 -12.4375879 41.42406665 -12.45629883 38.56469727 C-12.47796234 35.79152951 -12.51738392 33.01902987 -12.55859375 30.24609375 C-12.55870956 29.39389755 -12.55882538 28.54170135 -12.5589447 27.66368103 C-12.63851734 22.88466696 -13.08860962 19.97688951 -16 16 C-16.82425062 12.82635476 -16.83848334 10.17541754 -16 7 C-12.0633303 1.43576659 -6.82704806 -1.94863847 0 0 Z " fill="#F9FBFB" transform="translate(202,117)"/>
<path d="M0 0 C5.14828721 4.11862977 9.82033391 10.37666645 11 17 C12.26238771 33.55670035 5.78528571 45.98177231 -4.74829102 58.29248047 C-5.82575076 59.53394184 -6.91191503 60.76784054 -8 62 C-8.58628174 61.1857959 -9.17256348 60.3715918 -9.77661133 59.53271484 C-13.18471047 56.15522269 -16.69181693 56.42079125 -21.29093933 56.40786743 C-22.37442154 56.4305368 -23.45790375 56.45320618 -24.57421875 56.4765625 C-26.25448906 56.4836171 -26.25448906 56.4836171 -27.96870422 56.49081421 C-31.54226408 56.51214592 -35.11433685 56.56877512 -38.6875 56.625 C-41.10480378 56.641507 -43.52212334 56.65585509 -45.93945312 56.66796875 C-50.35004466 56.70193647 -54.76048339 56.73662487 -59.1706543 56.80712891 C-60.50038521 56.82641953 -60.50038521 56.82641953 -61.85697937 56.84609985 C-64.0514353 56.86655228 -64.0514353 56.86655228 -66 58 C-67.91563628 51.01777432 -69.11245874 43.93603286 -70.28710938 36.79882812 C-70.62664223 34.74004223 -70.97315615 32.68251259 -71.3203125 30.625 C-71.53947889 29.30736086 -71.75824327 27.98965477 -71.9765625 26.671875 C-72.17330566 25.4869043 -72.37004883 24.30193359 -72.57275391 23.08105469 C-73 20 -73 20 -73 16 C-69.46393346 17.17868885 -69.13379608 18.02241769 -67.1875 21.0625 C-64.79848499 24.42837726 -64.79848499 24.42837726 -60.9375 25.8125 C-56.20071664 24.50232588 -54.15590395 21.52176346 -51.296875 17.7578125 C-38.86722133 1.53863027 -20.20334079 -11.36903863 0 0 Z " fill="#57828F" transform="translate(466,221)"/>
<path d="M0 0 C3.54358269 2.79594819 6.93060579 5.68530584 10 9 C10 9.66 10 10.32 10 11 C9.0925 11.144375 8.185 11.28875 7.25 11.4375 C2.4325349 13.75358899 1.76392365 17.15843549 0 22 C-0.68527268 23.6675837 -1.37277635 25.33425232 -2.0625 27 C-3.26164975 30.01632284 -4.34659771 33.02704508 -5.3125 36.125 C-7.62146947 43.29837146 -10.92377627 50.13117167 -14 57 C-18.90849228 57.87975822 -23.12471637 58.17377473 -28 57 C-32.15436665 52.88630547 -34.50111259 48.22966004 -37 43 C-37.47308594 42.15566406 -37.94617188 41.31132812 -38.43359375 40.44140625 C-42.49500803 32.33263102 -42.28965538 21.87599231 -40.375 13.15234375 C-37.66733513 6.1051624 -32.11918096 1.9338922 -25.875 -1.9375 C-18.21148182 -4.77388259 -6.98004919 -4.49515168 0 0 Z " fill="#588492" transform="translate(379,220)"/>
<path d="M0 0 C0.66 0 1.32 0 2 0 C2.495 6.93 2.495 6.93 3 14 C3.66 14 4.32 14 5 14 C5 17.96 5 21.92 5 26 C5.66 26 6.32 26 7 26 C7.20496094 27.07121094 7.40992188 28.14242188 7.62109375 29.24609375 C7.89302709 30.64326851 8.16517352 32.04040181 8.4375 33.4375 C8.57220703 34.14455078 8.70691406 34.85160156 8.84570312 35.58007812 C9.28406898 39.08429264 9.28406898 39.08429264 11 42 C12.98 42 14.96 42 17 42 C19.64 37.05 22.28 32.1 25 27 C39.52 27 54.04 27 69 27 C62.24437548 34.88156193 62.24437548 34.88156193 59.265625 37.28125 C58.61416504 37.80960449 57.96270508 38.33795898 57.29150391 38.88232422 C56.61780762 39.41615723 55.94411133 39.94999023 55.25 40.5 C54.54407715 41.06605957 53.8381543 41.63211914 53.11083984 42.21533203 C47.88842973 46.37199293 42.53789775 50.27382596 37 54 C35.18542062 55.26786249 33.37291456 56.53869753 31.5625 57.8125 C24.15209426 63.01048926 24.15209426 63.01048926 22.1875 62.875 C15.77307428 60.30922971 10.36322043 55.24371326 5 51 C3.80503906 50.06994141 3.80503906 50.06994141 2.5859375 49.12109375 C-5.71589714 42.59822367 -13.67614949 35.61312288 -21 28 C-21 27.67 -21 27.34 -21 27 C-20.34773438 26.98324219 -19.69546875 26.96648437 -19.0234375 26.94921875 C-14.88368477 26.54012814 -11.99041938 26.13463462 -9.17578125 22.91015625 C-5.16079834 15.73376947 -2.5694818 7.78803113 0 0 Z " fill="#598390" transform="translate(383,261)"/>
<path d="M0 0 C2.17578125 1.63671875 2.17578125 1.63671875 4 4 C4.390625 7.015625 4.390625 7.015625 4.25 10.25 C4.21390625 11.32765625 4.1778125 12.4053125 4.140625 13.515625 C4.09421875 14.33546875 4.0478125 15.1553125 4 16 C5.33804688 15.94779297 5.33804688 15.94779297 6.703125 15.89453125 C7.87359375 15.86746094 9.0440625 15.84039062 10.25 15.8125 C11.41015625 15.77769531 12.5703125 15.74289063 13.765625 15.70703125 C17.25717355 16.02329471 18.6141457 16.46937299 21 19 C21.5 22.5 21.5 22.5 21 26 C18.6141457 28.53062701 17.25717355 28.97670529 13.765625 29.29296875 C12.60546875 29.25816406 11.4453125 29.22335938 10.25 29.1875 C9.07953125 29.16042969 7.9090625 29.13335937 6.703125 29.10546875 C5.81109375 29.07066406 4.9190625 29.03585938 4 29 C4.04640625 29.81984375 4.0928125 30.6396875 4.140625 31.484375 C4.19476563 33.10085937 4.19476563 33.10085937 4.25 34.75 C4.29640625 35.81734375 4.3428125 36.8846875 4.390625 37.984375 C4 41 4 41 2.17578125 43.36328125 C0 45 0 45 -3.0625 45.4375 C-6 45 -6 45 -7.671875 43.890625 C-9.65852608 41.06256876 -9.28862207 38.71694307 -9.1875 35.3125 C-9.16042969 34.13300781 -9.13335937 32.95351562 -9.10546875 31.73828125 C-9.07066406 30.83464844 -9.03585937 29.93101562 -9 29 C-9.95261719 29.05800781 -10.90523438 29.11601562 -11.88671875 29.17578125 C-23.41640524 29.59051817 -23.41640524 29.59051817 -26.4375 26.8125 C-28 24 -28 24 -28.0625 21.375 C-26.75016404 18.44154314 -25.79009355 17.59368682 -23 16 C-19.546875 15.70703125 -19.546875 15.70703125 -15.75 15.8125 C-14.48671875 15.83957031 -13.2234375 15.86664063 -11.921875 15.89453125 C-10.95765625 15.92933594 -9.9934375 15.96414062 -9 16 C-9.05220703 14.64455078 -9.05220703 14.64455078 -9.10546875 13.26171875 C-9.13253906 12.08222656 -9.15960938 10.90273437 -9.1875 9.6875 C-9.22230469 8.51574219 -9.25710938 7.34398437 -9.29296875 6.13671875 C-9 3 -9 3 -7.671875 1.109375 C-5.01639229 -0.65267427 -3.09905509 -0.44272216 0 0 Z " fill="#D1DEE1" transform="translate(462,136)"/>
<path d="M0 0 C4.76437517 2.6533015 9.02177213 5.77747842 11 11 C11.77341203 15.37275264 11.84145619 19.34987162 9.796875 23.359375 C7.27116516 26.85454922 5.11777312 29.46884248 1 31 C-4.56875991 31.66701024 -9.45525508 31.73172128 -14.5625 29.3125 C-17.8320199 26.21064779 -19.75850523 23.61649202 -20.43359375 19.09765625 C-20.44699993 8.68105256 -20.44699993 8.68105256 -16 4 C-11.1519179 -0.38635999 -6.30316753 -1.42695397 0 0 Z " fill="#366774" transform="translate(319,316)"/>
<path d="M0 0 C3.43403788 2.00011167 6.21175747 4.42351494 8 8 C8.51158525 12.06344859 8.94019368 16.21399502 6.98828125 19.921875 C4.44616861 23.00599965 1.76948796 25.71066892 -2.26953125 26.37109375 C-9.98271423 26.57251327 -9.98271423 26.57251327 -13.5 23.75 C-17.43958607 19.41645533 -18.55669722 16.11768198 -18.4609375 10.32421875 C-17.65549538 6.26287923 -15.05462619 3.65894922 -12 1 C-8.24289828 -0.87855086 -4.08021262 -0.66379578 0 0 Z " fill="#DAE4E6" transform="translate(199,348)"/>
<path d="M0 0 C4.38410756 2.19205378 7.13092657 4.43115383 9 9 C9.53635899 13.82723092 9.52017901 15.97890786 7.3125 20.3125 C3.76842345 24.43129166 1.04274898 26.1485803 -4.375 26.5625 C-9.00398271 26.42316607 -11.37880357 24.70737165 -14.6875 21.60546875 C-17.61132657 18.02900232 -17.33001224 13.84119941 -17.28515625 9.4453125 C-16.87801087 5.95390147 -15.59561409 4.30721252 -13 2 C-8.73426321 -0.51660623 -4.846104 -0.68148337 0 0 Z " fill="#69919C" transform="translate(273,348)"/>
<path d="M0 0 C3.85544798 1.99657127 5.59805092 3.39707638 8 7 C8.64847922 11.34822382 9.02965106 15.98822024 6.984375 19.984375 C4.92997725 22.48430479 2.68612055 24.20925297 0 26 C-5.54039834 26.45413101 -9.31144236 26.30330197 -14 23 C-16.77348648 19.66664824 -17.89761818 16.72947045 -18.5 12.4375 C-17.79473472 7.58880118 -15.79117112 4.604432 -12.1640625 1.35546875 C-8.3506865 -1.03305376 -4.34319923 -0.63024342 0 0 Z " fill="#9FBABF" transform="translate(236,348)"/>
<path d="M0 0 C0.33 0 0.66 0 1 0 C1 3.96 1 7.92 1 12 C2.33804687 11.94779297 2.33804687 11.94779297 3.703125 11.89453125 C4.87359375 11.86746094 6.0440625 11.84039062 7.25 11.8125 C8.41015625 11.77769531 9.5703125 11.74289063 10.765625 11.70703125 C14.25717355 12.02329471 15.6141457 12.46937299 18 15 C18.5 18.5 18.5 18.5 18 22 C15.6141457 24.53062701 14.25717355 24.97670529 10.765625 25.29296875 C9.60546875 25.25816406 8.4453125 25.22335938 7.25 25.1875 C6.07953125 25.16042969 4.9090625 25.13335937 3.703125 25.10546875 C2.81109375 25.07066406 1.9190625 25.03585938 1 25 C0.04541351 16.64736824 -0.11039334 8.40215965 0 0 Z " fill="#D1DEE1" transform="translate(465,140)"/>
<path d="M0 0 C2.9375 1.5625 2.9375 1.5625 5 4 C5.6694949 8.09135771 5.38501272 10.24601675 3.5 13.9375 C0.47072721 16.43665005 -1.24727566 16.7459903 -5.09375 16.48046875 C-7 16 -7 16 -9.5 13.9375 C-11.37276489 10.27000208 -11.59172793 8.06812955 -11 4 C-8.10445004 -0.51705794 -5.12679803 -0.7195506 0 0 Z " fill="#F6F8F9" transform="translate(317,324)"/>
<path d="M0 0 C4.29 0 8.58 0 13 0 C13.49391856 11.36012692 13.49391856 11.36012692 11.17578125 14.36328125 C9 16 9 16 5.9375 16.4375 C3 16 3 16 1.328125 14.890625 C-1.50892251 10.85200443 -0.1384265 4.66035868 0 0 Z " fill="#D3DFE2" transform="translate(453,165)"/>
<path d="M0 0 C3.63 0 7.26 0 11 0 C12.92572521 3.85145043 12.04883218 8.80043252 12 13 C8.37 13 4.74 13 1 13 C1 16.96 1 20.92 1 25 C0.67 25 0.34 25 0 25 C-2.04379562 4.08759124 -2.04379562 4.08759124 0 0 Z " fill="#F7F9F9" transform="translate(454,152)"/>
<path d="M0 0 C3.0625 0.25 3.0625 0.25 6.0625 2.25 C6.35546875 5.5078125 6.35546875 5.5078125 6.25 9.375 C6.22292969 10.65632812 6.19585937 11.93765625 6.16796875 13.2578125 C6.13316406 14.24523437 6.09835937 15.23265625 6.0625 16.25 C2.4325 16.25 -1.1975 16.25 -4.9375 16.25 C-4.99134521 13.95858714 -5.03022087 11.66681812 -5.0625 9.375 C-5.08570313 8.09882813 -5.10890625 6.82265625 -5.1328125 5.5078125 C-4.87820278 1.26092236 -4.27027077 0.3634273 0 0 Z " fill="#DDE7E9" transform="translate(458.9375,135.75)"/>
<path d="M0 0 C14.52 0 29.04 0 44 0 C42.68 1.32 41.36 2.64 40 4 C40 3.01 40 2.02 40 1 C26.8 1.33 13.6 1.66 0 2 C0 1.34 0 0.68 0 0 Z " fill="#608995" transform="translate(408,288)"/>
<path d="M0 0 C0.721875 0.845625 1.44375 1.69125 2.1875 2.5625 C1.8575 3.5525 1.5275 4.5425 1.1875 5.5625 C0.630625 4.758125 0.07375 3.95375 -0.5 3.125 C-3.03114487 0.32021784 -4.13829134 -0.13131595 -7.8125 -0.4375 C-7.8125 -0.7675 -7.8125 -1.0975 -7.8125 -1.4375 C-3.93054643 -2.87936847 -3.23937503 -2.80745836 0 0 Z " fill="#B2C7CC" transform="translate(391.8125,232.4375)"/>
</svg>
